<?xml version="1.0" standalone="no"?>
<!DOCTYPE svg PUBLIC "-//W3C//DTD SVG 20010904//EN"
 "http://www.w3.org/TR/2001/REC-SVG-20010904/DTD/svg10.dtd">
<svg version="1.0" xmlns="http://www.w3.org/2000/svg"
 width="276.000000pt" height="276.000000pt" viewBox="0 0 276.000000 276.000000"
 preserveAspectRatio="xMidYMid meet">
<metadata>
Created by potrace 1.14, written by Peter Selinger 2001-2017
</metadata>
<g transform="translate(0.000000,276.000000) scale(0.100000,-0.100000)"
fill="#000000" stroke="none">
<path d="M1200 2738 c0 -5 -4 -6 -10 -3 -5 3 -10 0 -10 -7 0 -9 -3 -9 -10 2
-7 11 -10 11 -10 2 0 -7 -4 -10 -10 -7 -5 3 -10 2 -10 -4 0 -10 -25 -9 -36 2
-4 4 -18 0 -31 -8 -17 -12 -23 -12 -23 -3 0 8 -5 5 -11 -5 -6 -9 -14 -15 -19
-12 -4 3 -21 0 -37 -7 -15 -6 -31 -11 -35 -10 -5 1 -8 -2 -8 -6 0 -5 -13 -8
-29 -7 -17 1 -29 -3 -28 -8 1 -5 -4 -12 -12 -15 -9 -3 -11 0 -6 7 5 9 2 9 -13
0 -12 -7 -18 -17 -15 -22 3 -5 -5 -4 -17 3 -15 8 -20 8 -16 1 4 -6 2 -11 -4
-11 -6 0 -8 -5 -4 -12 5 -8 0 -7 -11 2 -11 9 -16 10 -11 3 7 -13 0 -16 -36
-16 -9 0 -14 -5 -11 -12 2 -7 -1 -16 -8 -21 -8 -4 -10 -3 -5 4 4 7 2 12 -4 12
-6 0 -13 -7 -17 -16 -3 -8 -12 -13 -20 -10 -9 4 -17 -1 -20 -14 -3 -11 -10
-20 -15 -20 -5 0 -6 6 -3 13 4 6 0 4 -8 -5 -8 -10 -17 -15 -21 -11 -4 4 -4 0
-1 -9 4 -9 1 -19 -6 -24 -8 -4 -10 -3 -5 4 4 7 2 12 -4 12 -6 0 -13 -7 -17
-16 -3 -8 -12 -13 -21 -9 -12 4 -13 3 -2 -10 11 -13 10 -14 -5 -9 -13 5 -16 4
-11 -4 4 -8 2 -10 -7 -6 -8 3 -18 0 -22 -5 -3 -6 -12 -8 -18 -4 -7 4 -6 -1 2
-11 8 -9 10 -16 5 -15 -5 1 -18 1 -29 0 -17 -1 -18 -3 -5 -11 13 -8 12 -10 -4
-10 -12 0 -16 -5 -13 -14 4 -10 1 -13 -9 -9 -7 3 -14 0 -14 -6 0 -6 -7 -11
-16 -11 -8 0 -12 -4 -9 -10 3 -5 1 -10 -5 -10 -6 0 -8 -5 -4 -12 5 -8 2 -9
-10 -5 -10 4 -15 3 -11 -3 3 -6 -1 -10 -9 -10 -9 0 -16 -5 -16 -11 0 -5 5 -7
12 -3 7 4 8 3 4 -4 -4 -7 -14 -12 -23 -12 -10 0 -13 -6 -9 -16 4 -12 2 -15 -9
-11 -8 4 -17 2 -20 -3 -4 -6 -1 -10 4 -10 6 0 11 -4 11 -10 0 -5 -6 -7 -14 -4
-9 3 -13 -1 -13 -13 1 -10 -3 -17 -9 -16 -6 1 -16 -9 -22 -22 -10 -21 -9 -23
6 -18 9 3 2 -4 -15 -16 -23 -14 -31 -25 -26 -37 4 -12 3 -15 -5 -10 -11 7 -17
-6 -13 -27 1 -5 -3 -6 -8 -3 -5 4 -12 2 -16 -4 -3 -5 0 -10 7 -10 8 0 6 -5 -5
-11 -14 -8 -16 -14 -6 -25 10 -12 9 -13 -5 -8 -11 4 -16 2 -14 -7 2 -8 -3 -13
-11 -11 -12 3 -12 0 -2 -12 10 -12 8 -16 -10 -21 -17 -6 -19 -9 -8 -17 11 -7
11 -11 2 -15 -7 -2 -13 -14 -13 -24 0 -14 -4 -18 -13 -13 -9 6 -9 4 1 -8 11
-14 10 -19 -8 -31 -16 -11 -18 -16 -8 -20 10 -4 10 -6 1 -6 -7 -1 -13 -14 -13
-30 0 -16 -6 -32 -12 -34 -10 -4 -10 -7 0 -15 10 -7 10 -11 -2 -22 -9 -7 -13
-17 -10 -22 4 -6 0 -14 -7 -19 -12 -7 -11 -9 1 -9 11 0 12 -2 3 -8 -7 -4 -13
-24 -15 -45 -1 -20 -5 -37 -8 -37 -8 0 -3 -353 5 -420 4 -30 12 -58 18 -61 5
-4 7 -11 3 -17 -3 -6 -2 -13 2 -16 5 -3 8 -17 7 -31 -2 -14 1 -25 6 -25 5 0 9
-5 9 -11 0 -5 -6 -7 -13 -4 -6 4 -5 1 4 -7 9 -7 14 -19 11 -27 -2 -8 0 -11 5
-8 6 4 10 -4 10 -19 0 -15 7 -30 14 -35 12 -7 12 -9 0 -9 -9 0 -6 -7 9 -20 15
-13 18 -20 9 -20 -8 -1 -3 -7 10 -14 23 -13 23 -14 5 -25 -16 -10 -16 -12 -1
-7 11 3 17 0 17 -10 0 -8 4 -12 10 -9 5 3 7 0 4 -8 -3 -8 2 -22 11 -31 11 -10
12 -16 4 -16 -7 0 -2 -9 11 -20 15 -13 18 -20 9 -20 -8 -1 -5 -6 8 -13 16 -9
19 -16 12 -29 -7 -13 -5 -15 14 -11 18 4 19 3 7 -6 -13 -9 -9 -15 11 -13 3 0
11 -9 19 -21 12 -21 12 -21 -6 -7 -18 14 -18 14 -1 -6 9 -11 14 -24 10 -28 -4
-4 1 -4 12 0 15 6 17 4 12 -11 -6 -15 -5 -16 7 -6 11 9 16 9 22 0 4 -8 3 -9
-4 -5 -7 4 -12 2 -12 -3 0 -11 15 -15 35 -11 6 1 4 -4 -2 -11 -10 -10 -6 -16
18 -31 25 -15 29 -22 19 -33 -10 -12 -8 -13 10 -10 17 3 20 1 15 -13 -3 -9 -3
-14 0 -10 8 7 64 -44 58 -54 -2 -4 2 -10 8 -14 8 -4 9 -3 5 4 -4 7 -4 12 -1
12 11 0 35 -28 35 -42 0 -10 3 -9 10 2 8 12 10 12 10 -5 0 -16 2 -17 9 -6 7
11 10 9 13 -10 2 -16 9 -23 21 -21 9 2 17 -2 17 -8 0 -5 9 -10 19 -10 11 0 23
-9 26 -21 5 -15 10 -17 20 -9 10 8 19 3 40 -22 16 -18 34 -32 42 -30 7 2 13
-2 13 -8 0 -6 4 -8 10 -5 5 3 17 -3 27 -14 11 -13 20 -17 24 -10 4 7 11 6 20
-3 8 -7 20 -13 27 -14 38 -3 43 -5 37 -14 -6 -9 14 -14 43 -11 6 1 12 -5 12
-14 0 -8 5 -15 11 -15 5 0 7 5 4 10 -5 9 31 -4 85 -30 8 -3 27 -3 42 1 17 4
30 3 34 -3 5 -7 2 -8 -6 -3 -8 5 -11 4 -7 -3 4 -5 15 -9 25 -8 9 2 23 -4 30
-13 10 -12 12 -12 6 -1 -6 12 -5 13 7 4 17 -14 377 -16 385 -3 3 5 11 9 17 9
7 0 6 -4 -3 -10 -8 -5 -10 -10 -5 -10 18 1 45 27 37 36 -4 4 1 2 11 -5 12 -10
17 -10 17 -2 0 7 5 9 10 6 6 -3 10 -1 10 5 0 6 5 8 10 5 6 -3 10 -2 10 3 0 5
10 8 23 7 12 -1 30 2 40 7 12 6 17 5 17 -4 0 -6 7 -3 16 8 8 10 12 12 8 4 -5
-10 1 -8 16 5 14 12 20 14 15 5 -8 -13 -7 -13 8 -1 9 7 17 10 17 5 0 -4 7 1
16 12 8 10 12 13 9 6 -6 -11 -3 -11 16 0 13 7 28 19 32 26 6 10 12 10 22 2 9
-8 14 -6 19 6 4 9 9 14 13 11 3 -4 12 1 20 11 8 9 12 12 9 6 -3 -6 1 -11 8
-11 8 0 12 7 8 15 -3 10 -1 13 6 8 7 -4 12 -2 12 4 0 6 5 8 10 5 6 -3 10 -1
10 5 0 6 5 8 10 5 6 -3 10 -1 10 5 0 6 5 8 10 5 6 -3 10 -1 10 5 0 6 5 8 10 5
6 -3 10 -1 10 4 0 6 10 11 23 11 18 0 19 2 7 10 -13 8 -13 10 2 10 10 0 26 9
36 21 11 11 29 21 40 22 11 0 19 4 16 8 -2 4 0 10 6 14 6 4 7 12 3 18 -4 7 2
5 13 -3 10 -8 16 -11 12 -6 -11 13 29 49 47 43 13 -5 14 -3 5 13 -9 17 -8 20
10 20 11 0 20 7 20 15 0 10 7 15 18 13 12 -2 17 3 16 18 0 16 4 20 15 16 9 -3
13 -2 9 3 -4 4 6 18 23 32 16 14 27 29 24 33 -3 5 2 15 11 24 8 9 12 21 8 27
-4 8 -3 9 4 5 7 -4 12 -1 12 9 0 11 5 15 14 12 8 -3 17 1 20 9 4 10 1 13 -7 8
-6 -3 -1 4 13 17 14 13 19 20 11 14 -12 -8 -12 -7 -3 11 6 12 18 24 26 27 9 4
13 15 11 27 -3 17 -1 19 8 11 9 -7 13 -5 15 10 4 42 6 48 13 43 4 -2 10 0 14
6 3 5 0 10 -7 10 -8 1 -6 6 6 15 11 8 14 15 7 15 -7 0 -9 5 -6 10 4 6 12 7 18
3 8 -4 7 -1 -1 9 -11 14 -9 19 10 32 18 13 20 18 9 25 -11 7 -10 11 5 20 11 6
15 11 10 11 -5 0 -2 8 5 17 12 14 12 16 0 8 -9 -5 -6 4 7 22 17 23 19 33 9 43
-10 10 -9 11 2 5 11 -6 13 -3 9 13 -4 13 0 23 9 26 11 5 12 10 2 27 -8 16 -8
20 1 14 9 -5 11 10 8 59 -1 36 0 66 3 66 4 0 10 7 13 16 4 10 2 13 -7 8 -9 -6
-9 -5 -1 7 15 18 18 205 4 214 -5 3 -10 12 -10 18 0 7 4 6 10 -3 6 -9 10 -10
10 -3 0 6 -4 15 -10 18 -5 3 -10 35 -10 71 0 36 -4 64 -10 64 -5 0 -10 5 -10
11 0 5 4 8 9 5 5 -4 4 5 -2 19 -7 14 -15 25 -19 25 -3 0 -5 14 -4 31 1 18 -4
34 -13 39 -13 8 -13 9 -1 10 11 0 11 3 2 12 -7 7 -12 20 -12 31 0 11 -5 15
-11 11 -7 -4 -7 1 1 16 7 12 8 20 3 17 -4 -3 -13 1 -20 8 -10 11 -10 15 0 18
9 4 9 6 0 6 -7 1 -13 8 -13 16 0 8 -6 15 -12 15 -10 0 -9 3 1 9 9 6 10 11 2
15 -6 4 -8 12 -5 18 5 8 1 9 -10 5 -14 -6 -15 -3 -6 13 6 11 7 20 3 19 -27 -5
-35 1 -23 16 11 13 7 19 -12 17 -3 -1 -9 5 -12 14 -4 10 -2 13 6 8 7 -4 8 -3
4 4 -4 7 -14 12 -22 12 -8 0 -14 5 -14 11 0 5 6 7 13 3 6 -3 1 4 -13 17 -14
13 -20 20 -13 15 8 -5 13 -4 13 2 0 6 -9 14 -20 17 -11 4 -18 10 -15 15 3 5
-1 15 -9 23 -8 8 -12 18 -8 21 3 4 -2 4 -12 0 -14 -5 -17 -4 -12 4 4 7 2 12
-4 12 -6 0 -8 5 -5 10 6 9 -8 14 -28 11 -4 -1 -7 7 -5 16 2 12 -4 19 -20 21
-12 2 -20 8 -17 13 4 5 1 9 -5 9 -6 0 -8 5 -5 10 6 9 -8 15 -29 11 -5 -1 -6 6
-2 15 6 14 4 15 -9 4 -9 -7 -15 -9 -14 -4 4 23 -2 45 -11 39 -9 -5 -14 7 -12
26 1 4 -8 4 -20 1 -14 -3 -19 -1 -14 6 4 7 1 12 -8 12 -15 0 -21 12 -17 34 1
5 -5 6 -13 3 -9 -4 -17 1 -21 12 -4 13 -12 17 -27 13 -14 -3 -19 -1 -14 6 4 7
0 12 -10 12 -10 0 -14 3 -11 7 9 8 -24 32 -45 33 -10 0 -18 5 -18 11 0 5 -4 8
-9 5 -5 -4 -11 -2 -13 4 -2 6 -13 12 -26 15 -30 5 -43 15 -37 25 3 4 -4 6 -15
3 -11 -3 -20 0 -20 6 0 6 -9 11 -20 11 -11 0 -20 4 -20 9 0 5 -7 12 -16 15
-10 4 -13 2 -9 -7 4 -6 0 -4 -8 5 -8 10 -17 15 -20 12 -3 -4 -14 -3 -24 1 -10
5 -25 7 -32 6 -12 -2 -12 0 -3 11 10 13 3 15 -42 14 -30 -1 -52 2 -49 7 2 4
-1 7 -6 7 -19 0 -26 2 -45 12 -14 8 -17 7 -10 -4 6 -11 5 -11 -9 1 -9 7 -17
10 -17 6 0 -4 -7 -2 -15 5 -9 7 -18 10 -21 8 -3 -3 -20 -2 -38 2 -19 4 -40 4
-47 -1 -7 -4 -19 -3 -26 3 -9 7 -13 7 -13 0 0 -6 -13 -7 -34 -2 -18 4 -41 3
-50 -2 -10 -6 -16 -5 -16 2 0 7 -6 8 -17 2 -21 -10 -33 -10 -50 1 -6 4 -14 3
-17 -2 -3 -5 -21 -5 -41 -1 -21 5 -35 4 -35 -2z m1250 -2211 c0 -2 -8 -11 -18
-20 -15 -14 -19 -15 -19 -2 0 8 4 12 9 9 4 -3 8 0 8 5 0 6 5 11 10 11 6 0 10
-2 10 -3z m-229 -220 c-10 -9 -11 -8 -5 6 3 10 9 15 12 12 3 -3 0 -11 -7 -18z"/>
<path d="M340 466 c0 -3 9 -10 20 -16 11 -6 20 -8 20 -6 0 3 -9 10 -20 16 -11
6 -20 8 -20 6z"/>
<path d="M675 200 c10 -11 20 -20 23 -20 3 0 -3 9 -13 20 -10 11 -20 20 -23
20 -3 0 3 -9 13 -20z"/>
</g>
</svg>
